<svg id="Calque_1" data-name="Calque 1" xmlns="http://www.w3.org/2000/svg" viewBox="0 0 609.39 339.43"><defs><style>.cls-1{fill:#fff;}</style></defs><path class="cls-1" d="M346.67,86H306.25l-32.07,22.17v34.45l32.07-21.94h6V224.45H274.41v30.12h106.7V224.45H346.67Z"/><path class="cls-1" d="M453.85,218.2,489,190.73c18.16-14.2,31.07-32,31.07-53.94,0-34.68-24.39-54.2-58.1-54.2-35.9,0-59.33,18.79-61.26,54.2h34.44c1.68-16.37,11.73-23.37,25.84-23.37s24.41,7.7,24.41,24.1-13.63,28.18-27,37.77l-57.52,43.12v36.16H524.53V224.35H453.85Z"/><path class="cls-1" d="M203.45,119.23l14,24.48h39.49l-19.48-33.87A49.85,49.85,0,0,0,219.3,91.56a49.3,49.3,0,0,0-24.78-6.7h-40a49.53,49.53,0,0,0-43,25l-20,34.88a50.23,50.23,0,0,0,0,50l20,34.88a49.53,49.53,0,0,0,43,25h40a49.52,49.52,0,0,0,42.92-25l19.43-33.85H217.43l-14,24.46H145.57l-29-50.37,29-50.6Z"/></svg>